<svg width="40" height="40" viewBox="0 0 40 40" fill="none" xmlns="http://www.w3.org/2000/svg">
<path d="M7.37757 34.0013L4.57007 2.5H35.4301L32.6188 33.9963L19.9813 37.5L7.37757 34.0013Z" fill="#1572B6"/>
<path d="M20 34.8224L30.2125 31.9912L32.615 5.07617H20V34.8224Z" fill="#33A9DC"/>
<path d="M20 16.4887H25.1125L25.465 12.5325H20V8.6687H29.6875L29.595 9.70495L28.6462 20.3525H20V16.4887Z" fill="white"/>
<path d="M20.0238 26.5224L20.0063 26.5274L15.7038 25.3649L15.4288 22.2837H11.55L12.0913 28.3499L20.005 30.5474L20.0238 30.5424V26.5224Z" fill="#EBEBEB"/>
<path d="M24.7838 20.1887L24.3188 25.3625L20.01 26.525V30.545L27.93 28.35L27.9888 27.6975L28.66 20.1887H24.7838Z" fill="white"/>
<path d="M20.0137 8.6687V12.5325H10.6812L10.6037 11.6637L10.4275 9.70495L10.335 8.6687H20.0137Z" fill="#EBEBEB"/>
<path d="M20 16.4888V20.3525H15.7512L15.6737 19.4838L15.4988 17.525L15.4062 16.4888H20Z" fill="#EBEBEB"/>
</svg>
